# File created by Blade
# Date/Time:  Wed Jan 21 17:41:14 2015
# Frame Rate: 120.000 fps
#------------------------------------------------------
:FULLY-SPECIFIED
:DEGREES
1951
root 17.889954 35.534548 -23.736441 -524.887286 89.013367 -529.057790
Spine -17.541475 -0.611777 -2.111088
Head 10.858749 -2.508321 2.195114
LeftShoulder -11.223688 -30.987180 19.839047
LeftArm 8.109715 4.267307 -5.962919
LeftForeArm 11.140476 -0.000000 -2.921735
LeftHand -8.162899 -0.000000 6.947426
LeftHandThumb1 -26.253704 0.000000 33.147579
RightShoulder -12.982296 -3.283990 -7.555774
RightArm 10.802671 37.872474 8.422224
RightForeArm -37.230063 -0.000000 4.944116
RightHand -7.178752 -0.000000 -3.267573
RightHandThumb1 -24.326973 -0.000000 -32.862282
LeftUpLeg 3.154398 10.035723 1.345849
LeftLeg -4.814085 -0.000000 0.000000
LeftFoot -18.006907 25.176339 -12.117704
LeftToeBase 24.006217 -0.000000 -0.000000
RightUpLeg 3.555691 -7.486993 -3.459148
RightLeg -3.154612 -0.000000 0.000000
RightFoot -19.672269 -22.187113 16.765604
RightToeBase 23.879499 -0.000000 -0.000000
1952
root 17.916195 35.531978 -23.721634 -522.565888 89.066589 -526.767205
Spine -17.574452 -0.585420 -2.083237
Head 10.793117 -2.480540 2.211707
LeftShoulder -11.292744 -30.969932 19.870581
LeftArm 8.053195 4.275218 -5.970194
LeftForeArm 11.111485 -0.000000 -2.913217
LeftHand -8.264943 -0.000000 6.879859
LeftHandThumb1 -26.253704 0.000000 33.147579
RightShoulder -12.929809 -3.255344 -7.582643
RightArm 10.703968 37.865928 8.384881
RightForeArm -37.181737 -0.000000 4.920248
RightHand -7.192344 -0.000000 -3.214237
RightHandThumb1 -24.326973 -0.000000 -32.862282
LeftUpLeg 3.198211 10.109993 1.395324
LeftLeg -4.859240 -0.000000 0.000000
LeftFoot -18.037930 25.164584 -12.144320
LeftToeBase 24.023039 -0.000000 -0.000000
RightUpLeg 3.557954 -7.453173 -3.413314
RightLeg -3.154446 -0.000000 0.000000
RightFoot -19.710050 -22.149675 16.798139
RightToeBase 23.851200 -0.000000 -0.000000
1953
root 17.939215 35.529762 -23.708274 -520.403070 89.125891 -524.665881
Spine -17.642877 -0.510162 -2.082136
Head 10.737887 -2.510340 2.217345
LeftShoulder -11.282905 -30.999153 19.854340
LeftArm 7.979815 4.299942 -5.938703
LeftForeArm 11.072999 -0.000000 -2.919314
LeftHand -8.159523 -0.000000 6.897649
LeftHandThumb1 -26.253704 0.000000 33.147579
RightShoulder -12.913487 -3.225524 -7.612519
RightArm 10.592177 37.874506 8.354629
RightForeArm -37.157184 0.000000 4.910994
RightHand -7.200039 0.000000 -3.196595
RightHandThumb1 -24.326973 -0.000000 -32.862282
LeftUpLeg 3.204239 10.181873 1.428502
LeftLeg -4.902236 -0.000000 0.000000
LeftFoot -18.045500 25.155271 -12.161352
LeftToeBase 24.050618 -0.000000 -0.000000
RightUpLeg 3.521395 -7.489882 -3.377137
RightLeg -3.155598 -0.000000 0.000000
RightFoot -19.712541 -22.066230 16.754740
RightToeBase 23.841818 -0.000000 -0.000000
1954
root 17.963291 35.526743 -23.695819 -518.286161 89.171559 -522.580809
Spine -17.670852 -0.419048 -2.085494
Head 10.640981 -2.556070 2.201415
LeftShoulder -11.250069 -31.057285 19.837998
LeftArm 7.903064 4.340987 -5.930332
LeftForeArm 11.047085 0.000000 -2.901665
LeftHand -8.176798 -0.000000 6.946984
LeftHandThumb1 -26.253704 0.000000 33.147579
RightShoulder -12.937569 -3.211831 -7.644905
RightArm 10.529482 37.967461 8.365917
RightForeArm -37.195398 -0.000000 4.881726
RightHand -7.200943 0.000000 -3.213786
RightHandThumb1 -24.326973 -0.000000 -32.862282
LeftUpLeg 3.228182 10.237698 1.462599
LeftLeg -4.915732 -0.000000 0.000000
LeftFoot -18.082303 25.186404 -12.178225
LeftToeBase 24.075364 -0.000000 -0.000000
RightUpLeg 3.523558 -7.485187 -3.345088
RightLeg -3.162403 -0.000000 0.000000
RightFoot -19.729278 -22.024837 16.713661
RightToeBase 23.872213 -0.000000 -0.000000
